<svg clip-rule="evenodd" fill-rule="evenodd" stroke-linejoin="round" stroke-miterlimit="2" viewBox="0 0 3630 3630" xmlns="http://www.w3.org/2000/svg"><path d="m3220.89 1001.25c-.246-27.325-16.617-40.679-29.342-56.529 0 0-624.704-751.525-757.621-903.317-6.825-7.791-7.225-7.879-22.05-22.862-9.862-9.967-23.854-18.542-34.983-18.542-1015.21 0-1139.01-.017-1706.88-.033-151.321 0-274.167 122.862-274.167 274.166v3068.58c0 151.321 122.846 274.167 274.167 274.167h2276.84c151.3 0 274.167-122.846 274.167-274.167l-.142-2341.46h.005z" fill="#333f4c"/><path d="m1626.15 729.446s207.324 103.608 350.855 291.695c143.53 188.087 237.235 443.172 210.414 680.37 0 0 161.501-46.428 135.995-250.044 0 0 224.695 314.926 235.146 729.635 10.452 414.709-379.65 685.405-517.701 696.267 0 0 193.301-103.113 197.464-355.465 4.164-252.352-103.849-310.112-188.738-432.245-84.89-122.133-166.775-291.731-152.715-406.164 0 0-131.751 72.278-211.005 290.452s-38.969 326.838-32.597 421.733c0 0-165.302-39.042-151.049-285.215 0 0-124.824 149.263-130.231 391.285-5.407 242.021 193.651 375.92 193.651 375.92 63.649 49.937-224.685-102.466-326.308-228.386-38.919-48.226-151.013-170.769-179.096-455.018s231.576-607.281 272.983-664.099c52.469-72 372.415-449.236 292.932-800.721z" fill="#fec136"/></svg>