<?xml version="1.0" encoding="UTF-8" standalone="no"?><!DOCTYPE svg PUBLIC "-//W3C//DTD SVG 1.1//EN" "http://www.w3.org/Graphics/SVG/1.1/DTD/svg11.dtd"><svg width="100%" height="100%" viewBox="0 0 871 871" version="1.1" xmlns="http://www.w3.org/2000/svg" xmlns:xlink="http://www.w3.org/1999/xlink" xml:space="preserve" xmlns:serif="http://www.serif.com/" style="fill-rule:evenodd;clip-rule:evenodd;stroke-linejoin:round;stroke-miterlimit:2;"><g id="Artboard1"><path d="M773.013,240.3c-0.059,-6.558 -3.988,-9.763 -7.042,-13.567c-0,0 -149.929,-180.366 -181.829,-216.796c-1.638,-1.87 -1.734,-1.891 -5.292,-5.487c-2.367,-2.392 -5.725,-4.45 -8.396,-4.45c-243.65,-0 -273.362,-0.004 -409.65,-0.008c-36.317,-0 -65.8,29.487 -65.8,65.8l0,736.458c0,36.317 29.483,65.8 65.8,65.8l546.442,0c36.312,0 65.8,-29.483 65.8,-65.8l-0.034,-561.95Z" style="fill:#333f4c;"/><path d="M394.259,176.732c-0.391,0.88 -0.684,6.744 -0.684,12.999c-0,11.924 -2.053,33.426 -4.007,42.32c-4.105,18.667 -5.864,24.629 -11.924,41.537c-3.323,9.383 -12.608,27.562 -20.72,40.56c-10.555,17.104 -34.012,48.966 -42.71,57.957c-2.346,2.542 -6.353,7.428 -8.797,10.751c-2.541,3.421 -4.789,6.451 -5.179,6.646c-0.391,0.294 -2.151,3.323 -3.91,6.744c-1.857,3.323 -5.18,8.112 -7.33,10.653c-2.248,2.444 -4.985,6.255 -6.157,8.406c-1.075,2.15 -2.444,4.691 -3.03,5.766c-4.398,7.819 -14.074,30.982 -17.984,42.906c-5.961,18.179 -6.646,21.599 -7.427,37.53c-1.76,33.426 0.488,53.266 8.894,78.97c5.864,17.69 17.299,38.801 29.613,54.341c11.924,15.149 32.155,32.937 48.379,42.711c8.308,4.984 26.096,13.78 27.953,13.78c0.782,0 1.857,0.489 2.541,1.075c0.684,0.685 1.368,0.685 1.661,0.098c0.391,-0.489 -3.518,-4.691 -8.503,-9.285c-20.426,-18.765 -30.982,-38.996 -34.5,-66.362c-1.466,-11.826 -1.466,-13.976 -0,-27.464c0.977,-8.014 2.15,-16.419 2.736,-18.667c0.587,-2.248 1.76,-6.939 2.639,-10.262c2.932,-11.24 7.819,-23.457 15.051,-37.726c3.91,-7.819 7.428,-14.074 7.819,-14.074c0.489,-0 1.075,4.007 1.369,8.894c0.684,9.285 2.638,19.547 4.886,25.9c3.714,10.262 14.27,23.554 23.066,28.929c7.916,4.985 10.555,4.301 8.601,-2.443c-3.03,-10.555 -1.955,-52.679 1.759,-64.017c0.879,-2.736 1.955,-7.134 2.443,-9.676c2.541,-14.171 3.323,-17.494 5.473,-23.358c1.271,-3.519 3.128,-7.33 4.008,-8.308c0.879,-1.075 1.954,-3.03 2.345,-4.3c0.391,-1.271 2.541,-5.278 4.692,-8.796c2.247,-3.617 4.007,-6.842 4.007,-7.135c-0,-0.293 1.368,-2.639 3.127,-5.18c1.662,-2.541 3.91,-6.353 4.985,-8.405c2.15,-4.105 19.351,-22.284 24.043,-25.314c4.007,-2.541 4.984,-0.782 4.202,7.721c-0.293,3.714 -0.097,9.481 0.587,12.804c0.586,3.42 1.563,8.307 2.052,10.751c0.977,5.375 2.932,10.653 6.646,18.276c1.368,2.932 2.639,5.766 2.639,6.255c0,1.955 8.992,17.788 15.54,27.366c8.503,12.315 9.383,13.488 21.013,28.93c5.082,6.646 11.826,16.322 14.954,21.404c5.668,9.285 7.916,13.878 12.901,26.291c0.684,1.563 2.15,6.841 3.42,11.826c1.857,7.525 2.248,11.923 2.248,26.975c0,18.569 -0.782,23.358 -6.059,37.921c-5.767,16.224 -18.863,33.914 -34.305,46.522c-2.444,2.052 -4.203,4.007 -3.812,4.398c1.173,1.173 20.72,-7.623 32.155,-14.465c24.043,-14.465 43.101,-32.252 57.957,-54.341c5.571,-8.307 6.841,-10.457 11.337,-19.058c14.074,-26.584 20.916,-58.348 19.938,-92.849c-0.586,-22.87 -2.443,-37.53 -6.353,-51.115c-0.781,-2.737 -1.368,-5.864 -1.368,-6.94c0,-0.977 -0.488,-2.932 -0.977,-4.202c-0.587,-1.271 -1.955,-5.864 -3.128,-10.067c-1.27,-4.203 -2.639,-8.503 -3.225,-9.48c-0.489,-0.978 -0.88,-2.639 -0.88,-3.616c0,-1.076 -0.684,-2.835 -1.563,-3.91c-0.782,-1.075 -1.466,-2.736 -1.564,-3.714c-0,-1.466 -1.759,-5.668 -4.3,-10.067c-0.489,-0.879 -2.346,-4.495 -4.008,-8.209c-5.082,-10.849 -14.074,-28.93 -16.615,-33.328c-7.525,-13.292 -9.285,-16.029 -10.36,-15.638c-0.586,0.196 -1.857,4.496 -2.834,9.578c-2.737,15.149 -7.232,24.63 -17.006,35.674c-5.864,6.548 -8.796,8.796 -11.826,8.796c-1.661,-0 -1.759,-0.684 -1.173,-6.451c0.391,-3.616 0.098,-12.998 -0.488,-20.817c-4.203,-50.529 -19.841,-92.263 -49.259,-131.259c-8.405,-11.142 -11.142,-14.269 -22.675,-25.998c-7.818,-7.916 -17.103,-16.126 -25.704,-22.772c-2.541,-1.955 -5.082,-3.909 -5.669,-4.3c-7.232,-5.864 -28.148,-19.254 -30.005,-19.254c-0.586,-0 -1.368,0.684 -1.661,1.661Z" style="fill:#fec136;fill-rule:nonzero;"/></g></svg>