<svg clip-rule="evenodd" fill-rule="evenodd" stroke-linejoin="round" stroke-miterlimit="2" viewBox="0 0 15125 15125" xmlns="http://www.w3.org/2000/svg"><path d="m13420.4 4171.88c-1.025-113.854-69.238-169.496-122.258-235.537 0-.001-2602.93-3131.36-3156.76-3763.82-28.437-32.463-30.104-32.83-91.875-95.259-41.091-41.529-99.391-77.258-145.762-77.258-4230.04 0-4745.88-.071-7112-.138-630.504 0-1142.36 511.925-1142.36 1142.36v12785.8c0 630.504 511.859 1142.36 1142.36 1142.36h9486.83c630.417 0 1142.36-511.858 1142.36-1142.36l-.592-9756.08h.021l.025-.013zm-6644.75-1132.52s863.85 431.7 1461.9 1215.4c598.042 783.696 988.479 1846.55 876.725 2834.88 0 0 672.921-193.45 566.646-1041.85 0 0 936.229 1312.19 979.775 3040.15 43.55 1727.95-1581.88 2855.85-2157.09 2901.11 0 0 805.421-429.638 822.767-1481.11 17.35-1051.47-432.704-1292.13-786.409-1801.02-353.708-508.888-694.895-1215.55-636.312-1692.35 0 0-548.963 301.158-879.188 1210.22-330.225 909.059-162.37 1361.83-135.82 1757.22 0 0-688.759-162.675-629.371-1188.4 0 0-520.1 621.929-542.629 1630.35-22.53 1008.42 806.879 1566.33 806.879 1566.33 265.204 208.071-936.188-426.942-1359.62-951.609-162.162-200.941-629.221-711.537-746.233-1895.91-117.013-1184.37 964.9-2530.34 1137.43-2767.08 218.621-300 1551.73-1871.82 1220.55-3336.34z"/></svg>